<?xml version="1.0" encoding="utf-8"?>
<!-- Generator: Adobe Illustrator 16.0.0, SVG Export Plug-In . SVG Version: 6.00 Build 0)  -->
<!DOCTYPE svg PUBLIC "-//W3C//DTD SVG 1.1//EN" "http://www.w3.org/Graphics/SVG/1.1/DTD/svg11.dtd">
<svg version="1.1" id="Layer_1" xmlns="http://www.w3.org/2000/svg" xmlns:xlink="http://www.w3.org/1999/xlink" x="0px" y="0px"
	 width="482.471px" height="383.703px" viewBox="0 0 482.471 383.703" enable-background="new 0 0 482.471 383.703"
	 xml:space="preserve">
<rect x="0" y="0" fill="none" width="482.471" height="383.703"/>
<g>
	<polygon fill="#FFFFFF" points="190.707,216.848 223.228,160.201 249.104,195.867 266.239,176.984 291.764,216.848 	"/>
	<circle fill="#FFFFFF" cx="245.956" cy="146.911" r="9.092"/>
	<path fill="#FFFFFF" d="M289.684,107.313h-96.896c-15.061,0-27.268,12.207-27.268,27.266v114.549l0,0
		c0,15.059,12.207,27.266,27.268,27.266h96.896c15.06,0,27.264-12.207,27.264-27.266v-114.55
		C316.948,119.52,304.741,107.313,289.684,107.313z M302.827,233.117H179.646v-98.54c0-7.246,5.896-13.143,13.145-13.143h96.896
		c7.246,0,13.146,5.896,13.146,13.143L302.827,233.117L302.827,233.117z"/>
</g>
</svg>
