<?xml version="1.0" encoding="utf-8"?>
<!-- Generator: Adobe Illustrator 16.0.0, SVG Export Plug-In . SVG Version: 6.00 Build 0)  -->
<!DOCTYPE svg PUBLIC "-//W3C//DTD SVG 1.1//EN" "http://www.w3.org/Graphics/SVG/1.1/DTD/svg11.dtd">
<svg version="1.1" id="Layer_1" xmlns="http://www.w3.org/2000/svg" xmlns:xlink="http://www.w3.org/1999/xlink" x="0px" y="0px"
	 width="512px" height="512px" viewBox="0 0 512 512" enable-background="new 0 0 512 512" xml:space="preserve">
<g>
	<path fill="#FFFFFF" d="M256,127.102c34.43,0,66.799,13.408,91.145,37.753c24.346,24.345,37.753,56.714,37.753,91.145
		c0,34.43-13.407,66.799-37.753,91.145S290.43,384.897,256,384.897s-66.798-13.407-91.144-37.753S127.103,290.43,127.103,256
		s13.408-66.799,37.753-91.145C189.202,140.51,221.57,127.102,256,127.102 M256,87.102C162.721,87.102,87.103,162.72,87.103,256
		c0,93.279,75.618,168.897,168.897,168.897c93.28,0,168.897-75.618,168.897-168.897C424.897,162.72,349.28,87.102,256,87.102
		L256,87.102z"/>
</g>
</svg>
