<?xml version="1.0" standalone="no"?>
<!DOCTYPE svg PUBLIC "-//W3C//DTD SVG 20010904//EN"
 "http://www.w3.org/TR/2001/REC-SVG-20010904/DTD/svg10.dtd">
<svg version="1.0" xmlns="http://www.w3.org/2000/svg"
 width="700.000000pt" height="700.000000pt" viewBox="0 0 700.000000 700.000000"
 preserveAspectRatio="xMidYMid meet">
<metadata>
Created by potrace 1.11, written by Peter Selinger 2001-2013
</metadata>
<g transform="translate(0.000000,700.000000) scale(0.100000,-0.100000)"
fill="#000000" stroke="none">
<path d="M3280 5799 c-30 -4 -75 -9 -100 -12 -162 -20 -414 -88 -547 -148 -24
-10 -46 -19 -49 -19 -12 0 -221 -108 -289 -150 -244 -149 -480 -365 -650 -595
-200 -270 -353 -616 -410 -925 -3 -14 -7 -36 -10 -50 -6 -32 -15 -96 -25 -185
-9 -74 -5 -416 5 -475 3 -19 10 -66 16 -105 6 -38 13 -79 15 -90 2 -11 6 -31
9 -45 7 -36 65 -238 80 -275 4 -11 19 -49 33 -85 49 -129 152 -322 240 -448
179 -259 443 -508 705 -666 162 -98 450 -223 577 -251 8 -2 47 -11 85 -20 191
-45 320 -60 535 -60 176 0 252 6 392 30 721 126 1340 586 1673 1243 70 139
154 369 180 490 2 9 10 49 19 87 8 39 18 97 21 130 4 33 9 69 12 80 12 50 10
397 -2 495 -25 191 -43 277 -91 440 -69 230 -198 482 -352 688 -114 154 -296
340 -427 439 -102 77 -134 99 -207 145 -180 112 -401 208 -601 263 -96 26
-109 29 -177 41 -59 11 -67 12 -112 19 -23 3 -56 9 -73 11 -52 9 -418 11 -475
3z m475 -554 c462 -78 836 -293 1120 -645 103 -127 204 -299 254 -430 12 -30
26 -64 31 -75 13 -28 57 -189 69 -255 6 -30 13 -71 17 -90 10 -59 13 -401 3
-465 -5 -33 -12 -76 -14 -95 -3 -19 -13 -62 -21 -95 -9 -33 -18 -71 -21 -84
-8 -45 -75 -215 -119 -302 -49 -98 -162 -270 -226 -344 -119 -137 -222 -228
-373 -330 -330 -222 -721 -322 -1129 -290 -56 4 -86 8 -161 21 -242 41 -574
186 -741 323 -17 14 -51 42 -75 61 -179 142 -365 387 -474 624 -36 77 -100
262 -110 314 -2 15 -9 52 -15 82 -38 196 -41 395 -10 605 102 698 661 1294
1357 1445 52 11 121 23 152 27 31 3 58 7 60 9 6 6 384 -4 426 -11z"/>
</g>
</svg>
